# xmcd
#
# Track frame offsets:
# 150
# 28719
# 50837
# 75994
# 92228
# 116716
# 136506
# 161888
#
# Disc length: 2492 seconds
#
# Revision: 1
# Processed by: cddbd v1.5.1PL2 Copyright (c) Steve Scherf et al.
# Submitted via: CedeCatalogueitor 2.6.0.6 http://personales.ya.com/cdcatalogueitor
#
DISCID=6209ba08
DTITLE=John Mayall - Pop History Cd 1
DYEAR=1900
DGENRE=
TTITLE0=The Last Music Change
TTITLE1=Natures Dasappearing
TTITLE2=Waiting For The Right Time
TTITLE3=To A Princess
TTITLE4=I'm Gonna Fight For You JB
TTITLE5=Lying In My Bed
TTITLE6=Night Fiver 
TTITLE7=Counting The Days
EXTD=
EXTT0=
EXTT1=
EXTT2=
EXTT3=
EXTT4=
EXTT5=
EXTT6=
EXTT7=
PLAYORDER=
